<?xml version="1.0" standalone="no"?><!DOCTYPE svg PUBLIC "-//W3C//DTD SVG 1.1//EN" "http://www.w3.org/Graphics/SVG/1.1/DTD/svg11.dtd"><svg height="32" node-id="1" sillyvg="true" template-height="32" template-width="32" version="1.1" viewBox="0 0 32 32" width="32" xmlns="http://www.w3.org/2000/svg" xmlns:xlink="http://www.w3.org/1999/xlink"><defs node-id="248"><linearGradient gradientUnits="objectBoundingBox" id="paint8_linear_18_17387" node-id="147" spreadMethod="pad" x1="23.2057" x2="5.5403" y1="20.5799" y2="24.7001"><stop offset="0" stop-color="#ffbc5d"></stop><stop offset="0.303505" stop-color="#fcad6a"></stop><stop offset="1" stop-color="#cb7547"></stop></linearGradient><linearGradient gradientUnits="objectBoundingBox" id="paint10_linear_18_17387" node-id="154" spreadMethod="pad" x1="5.28125" x2="8" y1="24.2782" y2="23.7157"><stop offset="0" stop-color="#c2794c"></stop><stop offset="1" stop-color="#e07648" stop-opacity="0"></stop></linearGradient><linearGradient gradientUnits="objectBoundingBox" id="paint11_linear_18_17387" node-id="157" spreadMethod="pad" x1="26.625" x2="22" y1="26.0282" y2="24.9657"><stop offset="0.128534" stop-color="#ffbb5b"></stop><stop offset="1" stop-color="#ffbb5b" stop-opacity="0"></stop></linearGradient><linearGradient gradientUnits="objectBoundingBox" id="paint12_linear_18_17387" node-id="160" spreadMethod="pad" x1="17.4375" x2="17.4375" y1="28.8719" y2="27.6844"><stop offset="0.184212" stop-color="#ff6f8c"></stop><stop offset="1" stop-color="#ff7a6a" stop-opacity="0"></stop></linearGradient><linearGradient gradientUnits="objectBoundingBox" id="paint31_linear_18_17387" node-id="217" spreadMethod="pad" x1="16.2109" x2="22.5547" y1="9.1532" y2="17.1532"><stop offset="0" stop-color="#ffd678"></stop><stop offset="1" stop-color="#ffd678" stop-opacity="0"></stop></linearGradient><radialGradient cx="0" cy="0" fx="0" fy="0" gradientUnits="objectBoundingBox" id="paint0_radial_18_17387" node-id="123" r="1" rev="36" spreadMethod="pad"><stop offset="0" stop-color="#395de0"></stop><stop offset="1" stop-color="#2c68a3"></stop></radialGradient><radialGradient cx="0" cy="0" fx="0" fy="0" gradientUnits="objectBoundingBox" id="paint1_radial_18_17387" node-id="126" r="1" rev="35" spreadMethod="pad"><stop offset="0.248616" stop-color="#3db3f3"></stop><stop offset="1" stop-color="#5b73f4"></stop></radialGradient><radialGradient cx="0" cy="0" fx="0" fy="0" gradientUnits="objectBoundingBox" id="paint2_radial_18_17387" node-id="129" r="1" rev="34" spreadMethod="pad"><stop offset="0.257996" stop-color="#5fbeff"></stop><stop offset="1" stop-color="#5fbeff" stop-opacity="0"></stop></radialGradient><radialGradient cx="0" cy="0" fx="0" fy="0" gradientUnits="objectBoundingBox" id="paint3_radial_18_17387" node-id="132" r="1" rev="33" spreadMethod="pad"><stop offset="0" stop-color="#fbc96e"></stop><stop offset="1" stop-color="#fac567"></stop></radialGradient><radialGradient cx="0" cy="0" fx="0" fy="0" gradientUnits="objectBoundingBox" id="paint4_radial_18_17387" node-id="135" r="1" rev="32" spreadMethod="pad"><stop offset="0.765376" stop-color="#d89f3a" stop-opacity="0"></stop><stop offset="0.91124" stop-color="#daa139"></stop></radialGradient><radialGradient cx="0" cy="0" fx="0" fy="0" gradientUnits="objectBoundingBox" id="paint5_radial_18_17387" node-id="138" r="1" rev="31" spreadMethod="pad"><stop offset="0.254227" stop-color="#bf812a"></stop><stop offset="1" stop-color="#ce9333"></stop></radialGradient><radialGradient cx="0" cy="0" fx="0" fy="0" gradientUnits="objectBoundingBox" id="paint6_radial_18_17387" node-id="141" r="1" rev="30" spreadMethod="pad"><stop offset="0.734364" stop-color="#e9bb61" stop-opacity="0"></stop><stop offset="0.929116" stop-color="#e9bb61"></stop></radialGradient><radialGradient cx="0" cy="0" fx="0" fy="0" gradientUnits="objectBoundingBox" id="paint7_radial_18_17387" node-id="144" r="1" rev="29" spreadMethod="pad"><stop offset="0.772711" stop-color="#c18739" stop-opacity="0"></stop><stop offset="0.948485" stop-color="#c18739"></stop></radialGradient><radialGradient cx="0" cy="0" fx="0" fy="0" gradientUnits="objectBoundingBox" id="paint9_radial_18_17387" node-id="151" r="1" rev="28" spreadMethod="pad"><stop offset="0" stop-color="#f67b4e"></stop><stop offset="1" stop-color="#f67b4e" stop-opacity="0"></stop></radialGradient><radialGradient cx="0" cy="0" fx="0" fy="0" gradientUnits="objectBoundingBox" id="paint13_radial_18_17387" node-id="163" r="1" rev="27" spreadMethod="pad"><stop offset="0.377231" stop-color="#dd9049"></stop><stop offset="1" stop-color="#f8bf60" stop-opacity="0"></stop></radialGradient><radialGradient cx="0" cy="0" fx="0" fy="0" gradientUnits="objectBoundingBox" id="paint14_radial_18_17387" node-id="166" r="1" rev="26" spreadMethod="pad"><stop offset="0.195602" stop-color="#d7783d"></stop><stop offset="1" stop-color="#d7783d" stop-opacity="0"></stop></radialGradient><radialGradient cx="0" cy="0" fx="0" fy="0" gradientUnits="objectBoundingBox" id="paint15_radial_18_17387" node-id="169" r="1" rev="25" spreadMethod="pad"><stop offset="0.382465" stop-color="#d48c33"></stop><stop offset="1" stop-color="#feb16a" stop-opacity="0"></stop></radialGradient><radialGradient cx="0" cy="0" fx="0" fy="0" gradientUnits="objectBoundingBox" id="paint16_radial_18_17387" node-id="172" r="1" rev="24" spreadMethod="pad"><stop offset="0" stop-color="#ff196c"></stop><stop offset="1" stop-color="#ff1f4a"></stop></radialGradient><radialGradient cx="0" cy="0" fx="0" fy="0" gradientUnits="objectBoundingBox" id="paint17_radial_18_17387" node-id="175" r="1" rev="23" spreadMethod="pad"><stop offset="0.222789" stop-color="#ff5873"></stop><stop offset="1" stop-color="#ff5873" stop-opacity="0"></stop></radialGradient><radialGradient cx="0" cy="0" fx="0" fy="0" gradientUnits="objectBoundingBox" id="paint18_radial_18_17387" node-id="178" r="1" rev="22" spreadMethod="pad"><stop offset="0" stop-color="#f6196c"></stop><stop offset="1" stop-color="#e42047"></stop></radialGradient><radialGradient cx="0" cy="0" fx="0" fy="0" gradientUnits="objectBoundingBox" id="paint19_radial_18_17387" node-id="181" r="1" rev="21" spreadMethod="pad"><stop offset="0" stop-color="#fe536f"></stop><stop offset="1" stop-color="#fe536f" stop-opacity="0"></stop></radialGradient><radialGradient cx="0" cy="0" fx="0" fy="0" gradientUnits="objectBoundingBox" id="paint20_radial_18_17387" node-id="184" r="1" rev="20" spreadMethod="pad"><stop offset="0.172433" stop-color="#e7c04e"></stop><stop offset="1" stop-color="#d9972a"></stop></radialGradient><radialGradient cx="0" cy="0" fx="0" fy="0" gradientUnits="objectBoundingBox" id="paint21_radial_18_17387" node-id="187" r="1" rev="19" spreadMethod="pad"><stop offset="0.0645976" stop-color="#df8089"></stop><stop offset="1" stop-color="#df8089" stop-opacity="0"></stop></radialGradient><radialGradient cx="0" cy="0" fx="0" fy="0" gradientUnits="objectBoundingBox" id="paint22_radial_18_17387" node-id="190" r="1" rev="18" spreadMethod="pad"><stop offset="0" stop-color="#ffde71"></stop><stop offset="1" stop-color="#ffde71" stop-opacity="0"></stop></radialGradient><radialGradient cx="0" cy="0" fx="0" fy="0" gradientUnits="objectBoundingBox" id="paint23_radial_18_17387" node-id="193" r="1" rev="17" spreadMethod="pad"><stop offset="0.487603" stop-color="#e1ad3d" stop-opacity="0"></stop><stop offset="1" stop-color="#b9894b"></stop></radialGradient><radialGradient cx="0" cy="0" fx="0" fy="0" gradientUnits="objectBoundingBox" id="paint24_radial_18_17387" node-id="196" r="1" rev="16" spreadMethod="pad"><stop offset="0.172433" stop-color="#e7c04e"></stop><stop offset="1" stop-color="#d9972a"></stop></radialGradient><radialGradient cx="0" cy="0" fx="0" fy="0" gradientUnits="objectBoundingBox" id="paint25_radial_18_17387" node-id="199" r="1" rev="15" spreadMethod="pad"><stop offset="0" stop-color="#ffde71"></stop><stop offset="1" stop-color="#ffde71" stop-opacity="0"></stop></radialGradient><radialGradient cx="0" cy="0" fx="0" fy="0" gradientUnits="objectBoundingBox" id="paint26_radial_18_17387" node-id="202" r="1" rev="14" spreadMethod="pad"><stop offset="0" stop-color="#e4a122"></stop><stop offset="1" stop-color="#e4a122" stop-opacity="0"></stop></radialGradient><radialGradient cx="0" cy="0" fx="0" fy="0" gradientUnits="objectBoundingBox" id="paint27_radial_18_17387" node-id="205" r="1" rev="13" spreadMethod="pad"><stop offset="0.487603" stop-color="#e1ad3d" stop-opacity="0"></stop><stop offset="1" stop-color="#b9894b"></stop></radialGradient><radialGradient cx="0" cy="0" fx="0" fy="0" gradientUnits="objectBoundingBox" id="paint28_radial_18_17387" node-id="208" r="1" rev="12" spreadMethod="pad"><stop offset="0.172433" stop-color="#f0c950"></stop><stop offset="1" stop-color="#c8861f"></stop></radialGradient><radialGradient cx="0" cy="0" fx="0" fy="0" gradientUnits="objectBoundingBox" id="paint29_radial_18_17387" node-id="211" r="1" rev="11" spreadMethod="pad"><stop offset="0.183948" stop-color="#ffde71"></stop><stop offset="1" stop-color="#ffde71" stop-opacity="0"></stop></radialGradient><radialGradient cx="0" cy="0" fx="0" fy="0" gradientUnits="objectBoundingBox" id="paint30_radial_18_17387" node-id="214" r="1" rev="10" spreadMethod="pad"><stop offset="0" stop-color="#5fbfff"></stop><stop offset="1" stop-color="#3e94ff"></stop></radialGradient><radialGradient cx="0" cy="0" fx="0" fy="0" gradientUnits="objectBoundingBox" id="paint32_radial_18_17387" node-id="220" r="1" rev="9" spreadMethod="pad"><stop offset="0.289296" stop-color="#ffd175"></stop><stop offset="1" stop-color="#ffd175" stop-opacity="0"></stop></radialGradient><radialGradient cx="0" cy="0" fx="0" fy="0" gradientUnits="objectBoundingBox" id="paint33_radial_18_17387" node-id="223" r="1" rev="8" spreadMethod="pad"><stop offset="0.376296" stop-color="#f3d154"></stop><stop offset="1" stop-color="#cc9848"></stop></radialGradient><radialGradient cx="0" cy="0" fx="0" fy="0" gradientUnits="objectBoundingBox" id="paint34_radial_18_17387" node-id="226" r="1" rev="7" spreadMethod="pad"><stop offset="0" stop-color="#e78f5e"></stop><stop offset="1" stop-color="#e78f5e" stop-opacity="0"></stop></radialGradient><radialGradient cx="0" cy="0" fx="0" fy="0" gradientUnits="objectBoundingBox" id="paint35_radial_18_17387" node-id="229" r="1" rev="6" spreadMethod="pad"><stop offset="0.557117" stop-color="#e9c251" stop-opacity="0"></stop><stop offset="1" stop-color="#b49858"></stop></radialGradient><radialGradient cx="0" cy="0" fx="0" fy="0" gradientUnits="objectBoundingBox" id="paint36_radial_18_17387" node-id="232" r="1" rev="5" spreadMethod="pad"><stop offset="0" stop-color="#ffed77"></stop><stop offset="1" stop-color="#ffed77" stop-opacity="0"></stop></radialGradient><radialGradient cx="0" cy="0" fx="0" fy="0" gradientUnits="objectBoundingBox" id="paint37_radial_18_17387" node-id="235" r="1" rev="4" spreadMethod="pad"><stop offset="0.172433" stop-color="#f8cb54"></stop><stop offset="1" stop-color="#eaa34b"></stop></radialGradient><radialGradient cx="0" cy="0" fx="0" fy="0" gradientUnits="objectBoundingBox" id="paint38_radial_18_17387" node-id="238" r="1" rev="3" spreadMethod="pad"><stop offset="0.159577" stop-color="#f1907c"></stop><stop offset="1" stop-color="#f1907c" stop-opacity="0"></stop></radialGradient><radialGradient cx="0" cy="0" fx="0" fy="0" gradientUnits="objectBoundingBox" id="paint39_radial_18_17387" node-id="241" r="1" rev="2" spreadMethod="pad"><stop offset="0" stop-color="#ffde71"></stop><stop offset="1" stop-color="#ffde71" stop-opacity="0"></stop></radialGradient><radialGradient cx="0" cy="0" fx="0" fy="0" gradientUnits="objectBoundingBox" id="paint40_radial_18_17387" node-id="244" r="1" rev="1" spreadMethod="pad"><stop offset="0.487603" stop-color="#e0a444" stop-opacity="0"></stop><stop offset="1" stop-color="#c6924d"></stop></radialGradient><filter filterUnits="objectBoundingBox" height="19.8578" id="filter0_ii_18_17387" node-id="50" width="26.55" x="2.725" y="8.73289"><feFlood color-interpolation-filters="sRGB" flood-color="#000000" flood-opacity="0" result="BackgroundImageFix"></feFlood><feBlend color-interpolation-filters="sRGB" in="SourceGraphic" in2="BackgroundImageFix" mode="normal" result="shape"></feBlend><feColorMatrix color-interpolation-filters="sRGB" in="SourceAlpha" result="hardAlpha" type="matrix" values="0 0 0 0 0 0 0 0 0 0 0 0 0 0 0 0 0 0 127 0"></feColorMatrix><feOffset color-interpolation-filters="sRGB" dx="0.4" dy="-0.1" in="hardAlpha" result="result4"></feOffset><feGaussianBlur color-interpolation-filters="sRGB" in="result4" result="result5" stdDeviation="0.25 0.25"></feGaussianBlur><feComposite color-interpolation-filters="sRGB" in="result5" in2="hardAlpha" k1="0" k2="-1" k3="1" k4="0" operator="arithmetic" result="result6"></feComposite><feColorMatrix color-interpolation-filters="sRGB" in="result6" result="result7" type="matrix" values="0 0 0 0 0.803922 0 0 0 0 0.580392 0 0 0 0 0.262745 0 0 0 1 0"></feColorMatrix><feBlend color-interpolation-filters="sRGB" in="result7" in2="shape" mode="normal" result="effect1_innerShadow_18_17387"></feBlend><feColorMatrix color-interpolation-filters="sRGB" in="SourceAlpha" result="hardAlpha" type="matrix" values="0 0 0 0 0 0 0 0 0 0 0 0 0 0 0 0 0 0 127 0"></feColorMatrix><feOffset color-interpolation-filters="sRGB" dx="-0.4" dy="-0.1" in="hardAlpha" result="result10"></feOffset><feGaussianBlur color-interpolation-filters="sRGB" in="result10" result="result11" stdDeviation="0.25 0.25"></feGaussianBlur><feComposite color-interpolation-filters="sRGB" in="result11" in2="hardAlpha" k1="0" k2="-1" k3="1" k4="0" operator="arithmetic" result="result12"></feComposite><feColorMatrix color-interpolation-filters="sRGB" in="result12" result="result13" type="matrix" values="0 0 0 0 0.894118 0 0 0 0 0.686275 0 0 0 0 0.301961 0 0 0 1 0"></feColorMatrix><feBlend color-interpolation-filters="sRGB" in="result13" in2="effect1_innerShadow_18_17387" mode="normal" result="effect2_innerShadow_18_17387"></feBlend></filter><filter filterUnits="objectBoundingBox" height="4.49609" id="filter1_di_18_17387" node-id="65" width="4.2299805" x="20.1318" y="20.2845"><feFlood color-interpolation-filters="sRGB" flood-color="#000000" flood-opacity="0" result="BackgroundImageFix"></feFlood><feColorMatrix color-interpolation-filters="sRGB" in="SourceAlpha" result="hardAlpha" type="matrix" values="0 0 0 0 0 0 0 0 0 0 0 0 0 0 0 0 0 0 127 0"></feColorMatrix><feOffset color-interpolation-filters="sRGB" dx="-0.25" dy="0.25" in="hardAlpha" result="result3"></feOffset><feGaussianBlur color-interpolation-filters="sRGB" in="result3" result="result4" stdDeviation="0.375 0.375"></feGaussianBlur><feComposite color-interpolation-filters="sRGB" in="result4" in2="hardAlpha" operator="out" result="result5"></feComposite><feColorMatrix color-interpolation-filters="sRGB" in="result5" result="result6" type="matrix" values="0 0 0 0 1 0 0 0 0 0.54902 0 0 0 0 0.305882 0 0 0 1 0"></feColorMatrix><feBlend color-interpolation-filters="sRGB" in="result6" in2="BackgroundImageFix" mode="normal" result="effect1_dropShadow_18_17387"></feBlend><feBlend color-interpolation-filters="sRGB" in="SourceGraphic" in2="effect1_dropShadow_18_17387" mode="normal" result="shape"></feBlend><feColorMatrix color-interpolation-filters="sRGB" in="SourceAlpha" result="hardAlpha" type="matrix" values="0 0 0 0 0 0 0 0 0 0 0 0 0 0 0 0 0 0 127 0"></feColorMatrix><feOffset color-interpolation-filters="sRGB" dx="0.15" dy="-0.15" in="hardAlpha" result="result10"></feOffset><feGaussianBlur color-interpolation-filters="sRGB" in="result10" result="result11" stdDeviation="0.25 0.25"></feGaussianBlur><feComposite color-interpolation-filters="sRGB" in="result11" in2="hardAlpha" k1="0" k2="-1" k3="1" k4="0" operator="arithmetic" result="result12"></feComposite><feColorMatrix color-interpolation-filters="sRGB" in="result12" result="result13" type="matrix" values="0 0 0 0 0.984314 0 0 0 0 0.219608 0 0 0 0 0.254902 0 0 0 1 0"></feColorMatrix><feBlend color-interpolation-filters="sRGB" in="result13" in2="shape" mode="normal" result="effect2_innerShadow_18_17387"></feBlend></filter><filter filterUnits="objectBoundingBox" height="4.49609" id="filter2_di_18_17387" node-id="80" width="4.22998" x="7.2146" y="20.2845"><feFlood color-interpolation-filters="sRGB" flood-color="#000000" flood-opacity="0" result="BackgroundImageFix"></feFlood><feColorMatrix color-interpolation-filters="sRGB" in="SourceAlpha" result="hardAlpha" type="matrix" values="0 0 0 0 0 0 0 0 0 0 0 0 0 0 0 0 0 0 127 0"></feColorMatrix><feOffset color-interpolation-filters="sRGB" dx="-0.25" dy="0.25" in="hardAlpha" result="result3"></feOffset><feGaussianBlur color-interpolation-filters="sRGB" in="result3" result="result4" stdDeviation="0.375 0.375"></feGaussianBlur><feComposite color-interpolation-filters="sRGB" in="result4" in2="hardAlpha" operator="out" result="result5"></feComposite><feColorMatrix color-interpolation-filters="sRGB" in="result5" result="result6" type="matrix" values="0 0 0 0 0.905882 0 0 0 0 0.439216 0 0 0 0 0.278431 0 0 0 1 0"></feColorMatrix><feBlend color-interpolation-filters="sRGB" in="result6" in2="BackgroundImageFix" mode="normal" result="effect1_dropShadow_18_17387"></feBlend><feBlend color-interpolation-filters="sRGB" in="SourceGraphic" in2="effect1_dropShadow_18_17387" mode="normal" result="shape"></feBlend><feColorMatrix color-interpolation-filters="sRGB" in="SourceAlpha" result="hardAlpha" type="matrix" values="0 0 0 0 0 0 0 0 0 0 0 0 0 0 0 0 0 0 127 0"></feColorMatrix><feOffset color-interpolation-filters="sRGB" dx="0.3" dy="0.3" in="hardAlpha" result="result10"></feOffset><feGaussianBlur color-interpolation-filters="sRGB" in="result10" result="result11" stdDeviation="0.3 0.3"></feGaussianBlur><feComposite color-interpolation-filters="sRGB" in="result11" in2="hardAlpha" k1="0" k2="-1" k3="1" k4="0" operator="arithmetic" result="result12"></feComposite><feColorMatrix color-interpolation-filters="sRGB" in="result12" result="result13" type="matrix" values="0 0 0 0 0.796078 0 0 0 0 0.141176 0 0 0 0 0.223529 0 0 0 1 0"></feColorMatrix><feBlend color-interpolation-filters="sRGB" in="result13" in2="shape" mode="normal" result="effect2_innerShadow_18_17387"></feBlend></filter><filter filterUnits="objectBoundingBox" height="2.6760302" id="filter3_i_18_17387" node-id="95" width="2.78125" x="21.0312" y="9.58875"><feFlood color-interpolation-filters="sRGB" flood-color="#000000" flood-opacity="0" result="BackgroundImageFix"></feFlood><feBlend color-interpolation-filters="sRGB" in="SourceGraphic" in2="BackgroundImageFix" mode="normal" result="shape"></feBlend><feColorMatrix color-interpolation-filters="sRGB" in="SourceAlpha" result="hardAlpha" type="matrix" values="0 0 0 0 0 0 0 0 0 0 0 0 0 0 0 0 0 0 127 0"></feColorMatrix><feOffset color-interpolation-filters="sRGB" dx="0" dy="0" in="hardAlpha" result="result4"></feOffset><feGaussianBlur color-interpolation-filters="sRGB" in="result4" result="result5" stdDeviation="0.125 0.125"></feGaussianBlur><feComposite color-interpolation-filters="sRGB" in="result5" in2="hardAlpha" k1="0" k2="-1" k3="1" k4="0" operator="arithmetic" result="result6"></feComposite><feColorMatrix color-interpolation-filters="sRGB" in="result6" result="result7" type="matrix" values="0 0 0 0 0.756863 0 0 0 0 0.619608 0 0 0 0 0.321569 0 0 0 1 0"></feColorMatrix><feBlend color-interpolation-filters="sRGB" in="result7" in2="shape" mode="normal" result="effect1_innerShadow_18_17387"></feBlend></filter><filter filterUnits="objectBoundingBox" height="7.435789" id="filter4_di_18_17387" node-id="104" width="7.43579" x="11.8203" y="19.108"><feFlood color-interpolation-filters="sRGB" flood-color="#000000" flood-opacity="0" result="BackgroundImageFix"></feFlood><feColorMatrix color-interpolation-filters="sRGB" in="SourceAlpha" result="hardAlpha" type="matrix" values="0 0 0 0 0 0 0 0 0 0 0 0 0 0 0 0 0 0 127 0"></feColorMatrix><feOffset color-interpolation-filters="sRGB" dx="-0.5" dy="0.5" in="hardAlpha" result="result3"></feOffset><feGaussianBlur color-interpolation-filters="sRGB" in="result3" result="result4" stdDeviation="0.625 0.625"></feGaussianBlur><feComposite color-interpolation-filters="sRGB" in="result4" in2="hardAlpha" operator="out" result="result5"></feComposite><feColorMatrix color-interpolation-filters="sRGB" in="result5" result="result6" type="matrix" values="0 0 0 0 0.937255 0 0 0 0 0.443137 0 0 0 0 0.376471 0 0 0 1 0"></feColorMatrix><feBlend color-interpolation-filters="sRGB" in="result6" in2="BackgroundImageFix" mode="normal" result="effect1_dropShadow_18_17387"></feBlend><feBlend color-interpolation-filters="sRGB" in="SourceGraphic" in2="effect1_dropShadow_18_17387" mode="normal" result="shape"></feBlend><feColorMatrix color-interpolation-filters="sRGB" in="SourceAlpha" result="hardAlpha" type="matrix" values="0 0 0 0 0 0 0 0 0 0 0 0 0 0 0 0 0 0 127 0"></feColorMatrix><feOffset color-interpolation-filters="sRGB" dx="0.75" dy="-0.75" in="hardAlpha" result="result10"></feOffset><feGaussianBlur color-interpolation-filters="sRGB" in="result10" result="result11" stdDeviation="0.75 0.75"></feGaussianBlur><feComposite color-interpolation-filters="sRGB" in="result11" in2="hardAlpha" k1="0" k2="-1" k3="1" k4="0" operator="arithmetic" result="result12"></feComposite><feColorMatrix color-interpolation-filters="sRGB" in="result12" result="result13" type="matrix" values="0 0 0 0 0.313726 0 0 0 0 0.384314 0 0 0 0 1 0 0 0 1 0"></feColorMatrix><feBlend color-interpolation-filters="sRGB" in="result13" in2="shape" mode="normal" result="effect2_innerShadow_18_17387"></feBlend></filter><filter filterUnits="objectBoundingBox" height="7.0976095" id="filter5_f_18_17387" node-id="119" width="11.4755" x="16.0519" y="9.1274"><feFlood color-interpolation-filters="sRGB" flood-color="#000000" flood-opacity="0" result="BackgroundImageFix"></feFlood><feBlend color-interpolation-filters="sRGB" in="SourceGraphic" in2="BackgroundImageFix" mode="normal" result="shape"></feBlend><feGaussianBlur color-interpolation-filters="sRGB" in="shape" result="effect1_foregroundBlur_18_17387" stdDeviation="0.075 0.075"></feGaussianBlur></filter></defs><path d="M 6.90 22.30 L 6.50 23.30 L 5.40 23.80 L 4.30 23.30 L 3.80 22.30 L 4.30 21.20 L 5.40 20.70 L 6.50 21.20 L 6.90 22.30 Z" fill="url(#paint0_radial_18_17387)" fill-rule="nonzero" node-id="645" stroke="none" target-height="3.0999985" target-width="3.1000001" target-x="3.8" target-y="20.7"></path><path d="M 28.20 22.30 L 28.10 22.90 L 27.20 23.70 L 26.00 23.70 L 25.20 22.90 L 25.20 21.70 L 26.00 20.80 L 27.20 20.80 L 28.10 21.70 L 28.20 22.30 Z" fill="url(#paint1_radial_18_17387)" fill-rule="nonzero" node-id="647" stroke="none" target-height="2.9000015" target-width="3" target-x="25.2" target-y="20.8"></path><path d="M 28.20 22.30 L 28.10 22.90 L 27.20 23.70 L 26.00 23.70 L 25.20 22.90 L 25.20 21.70 L 26.00 20.80 L 27.20 20.80 L 28.10 21.70 L 28.20 22.30 Z" fill="url(#paint2_radial_18_17387)" fill-rule="nonzero" node-id="649" stroke="none" target-height="2.9000015" target-width="3" target-x="25.2" target-y="20.8"></path><path d="M 9.00 12.10 L 7.80 14.70 L 10.20 16.40 L 12.00 14.10 L 10.10 11.70 L 9.00 12.10 Z" fill="url(#paint3_radial_18_17387)" fill-rule="nonzero" node-id="651" stroke="none" target-height="4.7" target-width="4.2" target-x="7.8" target-y="11.7"></path><path d="M 9.00 12.10 L 7.80 14.70 L 10.20 16.40 L 12.00 14.10 L 10.10 11.70 L 9.00 12.10 Z" fill="url(#paint4_radial_18_17387)" fill-rule="nonzero" node-id="653" stroke="none" target-height="4.7" target-width="4.2" target-x="7.8" target-y="11.7"></path><path d="M 23.00 12.10 L 24.20 14.70 L 21.80 16.40 L 20.00 14.10 L 21.90 11.70 L 23.00 12.10 Z" fill="url(#paint5_radial_18_17387)" fill-rule="nonzero" node-id="655" stroke="none" target-height="4.7" target-width="4.200001" target-x="20" target-y="11.7"></path><path d="M 23.00 12.10 L 24.20 14.70 L 21.80 16.40 L 20.00 14.10 L 21.90 11.70 L 23.00 12.10 Z" fill="url(#paint6_radial_18_17387)" fill-rule="nonzero" node-id="657" stroke="none" target-height="4.7" target-width="4.200001" target-x="20" target-y="11.7"></path><path d="M 23.00 12.10 L 24.20 14.70 L 21.80 16.40 L 20.00 14.10 L 21.90 11.70 L 23.00 12.10 Z" fill="url(#paint7_radial_18_17387)" fill-rule="nonzero" node-id="659" stroke="none" target-height="4.7" target-width="4.200001" target-x="20" target-y="11.7"></path><g node-id="745"><path d="M 3.10 12.20 L 6.20 27.30 L 6.80 28.20 L 7.80 28.60 L 24.70 28.50 L 25.80 27.30 L 28.90 12.20 L 27.90 11.70 L 22.00 15.60 L 21.10 15.00 L 17.70 10.20 L 16.00 8.80 L 14.30 10.20 L 10.90 15.00 L 10.00 15.60 L 4.10 11.70 L 3.10 12.20 Z" fill="url(#paint8_linear_18_17387)" fill-rule="nonzero" filter="url(#filter0_ii_18_17387)" group-id="1" node-id="663" stroke="none" target-height="19.8" target-width="25.8" target-x="3.1" target-y="8.8"></path><path d="M 3.10 12.20 L 6.20 27.30 L 6.80 28.20 L 7.80 28.60 L 24.70 28.50 L 25.80 27.30 L 28.90 12.20 L 27.90 11.70 L 22.00 15.60 L 21.10 15.00 L 17.70 10.20 L 16.00 8.80 L 14.30 10.20 L 10.90 15.00 L 10.00 15.60 L 4.10 11.70 L 3.10 12.20 Z" fill="url(#paint9_radial_18_17387)" fill-rule="nonzero" filter="url(#filter0_ii_18_17387)" group-id="1" node-id="665" stroke="none" target-height="19.8" target-width="25.8" target-x="3.1" target-y="8.8"></path></g><path d="M 3.10 12.20 L 6.20 27.30 L 6.80 28.20 L 7.80 28.60 L 24.70 28.50 L 25.80 27.30 L 28.90 12.20 L 27.90 11.70 L 22.00 15.60 L 21.10 15.00 L 17.70 10.20 L 16.00 8.80 L 14.30 10.20 L 10.90 15.00 L 10.00 15.60 L 4.10 11.70 L 3.10 12.20 Z" fill="url(#paint10_linear_18_17387)" fill-rule="nonzero" node-id="668" stroke="none" target-height="19.8" target-width="25.8" target-x="3.1" target-y="8.8"></path><path d="M 3.10 12.20 L 6.20 27.30 L 6.80 28.20 L 7.80 28.60 L 24.70 28.50 L 25.80 27.30 L 28.90 12.20 L 27.90 11.70 L 22.00 15.60 L 21.10 15.00 L 17.70 10.20 L 16.00 8.80 L 14.30 10.20 L 10.90 15.00 L 10.00 15.60 L 4.10 11.70 L 3.10 12.20 Z" fill="url(#paint11_linear_18_17387)" fill-rule="nonzero" node-id="670" stroke="none" target-height="19.8" target-width="25.8" target-x="3.1" target-y="8.8"></path><path d="M 3.10 12.20 L 6.20 27.30 L 6.80 28.20 L 7.80 28.60 L 24.70 28.50 L 25.80 27.30 L 28.90 12.20 L 27.90 11.70 L 22.00 15.60 L 21.10 15.00 L 17.70 10.20 L 16.00 8.80 L 14.30 10.20 L 10.90 15.00 L 10.00 15.60 L 4.10 11.70 L 3.10 12.20 Z" fill="url(#paint12_linear_18_17387)" fill-rule="nonzero" node-id="672" stroke="none" target-height="19.8" target-width="25.8" target-x="3.1" target-y="8.8"></path><path d="M 3.10 12.20 L 6.20 27.30 L 6.80 28.20 L 7.80 28.60 L 24.70 28.50 L 25.80 27.30 L 28.90 12.20 L 27.90 11.70 L 22.00 15.60 L 21.10 15.00 L 17.70 10.20 L 16.00 8.80 L 14.30 10.20 L 10.90 15.00 L 10.00 15.60 L 4.10 11.70 L 3.10 12.20 Z" fill="url(#paint13_radial_18_17387)" fill-rule="nonzero" node-id="674" stroke="none" target-height="19.8" target-width="25.8" target-x="3.1" target-y="8.8"></path><path d="M 3.10 12.20 L 6.20 27.30 L 6.80 28.20 L 7.80 28.60 L 24.70 28.50 L 25.80 27.30 L 28.90 12.20 L 27.90 11.70 L 22.00 15.60 L 21.10 15.00 L 17.70 10.20 L 16.00 8.80 L 14.30 10.20 L 10.90 15.00 L 10.00 15.60 L 4.10 11.70 L 3.10 12.20 Z" fill="url(#paint14_radial_18_17387)" fill-rule="nonzero" node-id="676" stroke="none" target-height="19.8" target-width="25.8" target-x="3.1" target-y="8.8"></path><path d="M 3.10 12.20 L 6.20 27.30 L 6.80 28.20 L 7.80 28.60 L 24.70 28.50 L 25.80 27.30 L 28.90 12.20 L 27.90 11.70 L 22.00 15.60 L 21.10 15.00 L 17.70 10.20 L 16.00 8.80 L 14.30 10.20 L 10.90 15.00 L 10.00 15.60 L 4.10 11.70 L 3.10 12.20 Z" fill="url(#paint15_radial_18_17387)" fill-rule="nonzero" node-id="678" stroke="none" target-height="19.8" target-width="25.8" target-x="3.1" target-y="8.8"></path><g node-id="746"><path d="M 23.80 22.70 L 23.00 23.60 L 21.80 23.70 L 21.20 22.80 L 21.20 21.90 L 21.90 21.00 L 22.80 20.80 L 23.70 21.60 L 23.80 22.70 Z" fill="url(#paint16_radial_18_17387)" fill-rule="nonzero" filter="url(#filter1_di_18_17387)" group-id="2" node-id="682" stroke="none" target-height="2.9000015" target-width="2.5999985" target-x="21.2" target-y="20.8"></path><path d="M 23.80 22.70 L 23.00 23.60 L 21.80 23.70 L 21.20 22.80 L 21.20 21.90 L 21.90 21.00 L 22.80 20.80 L 23.70 21.60 L 23.80 22.70 Z" fill="url(#paint17_radial_18_17387)" fill-rule="nonzero" filter="url(#filter1_di_18_17387)" group-id="2" node-id="684" stroke="none" target-height="2.9000015" target-width="2.5999985" target-x="21.2" target-y="20.8"></path></g><g node-id="747"><path d="M 8.30 22.70 L 9.10 23.60 L 10.20 23.70 L 10.90 22.80 L 10.80 21.90 L 10.10 21.00 L 9.20 20.80 L 8.40 21.60 L 8.30 22.70 Z" fill="url(#paint18_radial_18_17387)" fill-rule="nonzero" filter="url(#filter2_di_18_17387)" group-id="3" node-id="689" stroke="none" target-height="2.9000015" target-width="2.5999994" target-x="8.3" target-y="20.8"></path><path d="M 8.30 22.70 L 9.10 23.60 L 10.20 23.70 L 10.90 22.80 L 10.80 21.90 L 10.10 21.00 L 9.20 20.80 L 8.40 21.60 L 8.30 22.70 Z" fill="url(#paint19_radial_18_17387)" fill-rule="nonzero" filter="url(#filter2_di_18_17387)" group-id="3" node-id="691" stroke="none" target-height="2.9000015" target-width="2.5999994" target-x="8.3" target-y="20.8"></path></g><path d="M 4.90 11.90 L 4.50 12.90 L 3.50 13.30 L 2.50 12.90 L 2.10 11.90 L 2.50 10.90 L 3.50 10.50 L 4.50 10.90 L 4.90 11.90 Z" fill="url(#paint20_radial_18_17387)" fill-rule="nonzero" node-id="694" stroke="none" target-height="2.8000002" target-width="2.8000002" target-x="2.1" target-y="10.5"></path><path d="M 4.90 11.90 L 4.50 12.90 L 3.50 13.30 L 2.50 12.90 L 2.10 11.90 L 2.50 10.90 L 3.50 10.50 L 4.50 10.90 L 4.90 11.90 Z" fill="url(#paint21_radial_18_17387)" fill-rule="nonzero" node-id="696" stroke="none" target-height="2.8000002" target-width="2.8000002" target-x="2.1" target-y="10.5"></path><path d="M 4.90 11.90 L 4.50 12.90 L 3.50 13.30 L 2.50 12.90 L 2.10 11.90 L 2.50 10.90 L 3.50 10.50 L 4.50 10.90 L 4.90 11.90 Z" fill="url(#paint22_radial_18_17387)" fill-rule="nonzero" node-id="698" stroke="none" target-height="2.8000002" target-width="2.8000002" target-x="2.1" target-y="10.5"></path><path d="M 4.90 11.90 L 4.50 12.90 L 3.50 13.30 L 2.50 12.90 L 2.10 11.90 L 2.50 10.90 L 3.50 10.50 L 4.50 10.90 L 4.90 11.90 Z" fill="url(#paint23_radial_18_17387)" fill-rule="nonzero" node-id="700" stroke="none" target-height="2.8000002" target-width="2.8000002" target-x="2.1" target-y="10.5"></path><path d="M 10.30 12.20 L 10.80 11.70 L 10.90 10.40 L 10.10 9.70 L 9.60 9.60 L 8.60 10.00 L 8.20 11.00 L 8.90 12.20 L 10.30 12.20 Z" fill="url(#paint24_radial_18_17387)" fill-rule="nonzero" node-id="702" stroke="none" target-height="2.5999994" target-width="2.6999998" target-x="8.2" target-y="9.6"></path><path d="M 10.30 12.20 L 10.80 11.70 L 10.90 10.40 L 10.10 9.70 L 9.60 9.60 L 8.60 10.00 L 8.20 11.00 L 8.90 12.20 L 10.30 12.20 Z" fill="url(#paint25_radial_18_17387)" fill-rule="nonzero" node-id="704" stroke="none" target-height="2.5999994" target-width="2.6999998" target-x="8.2" target-y="9.6"></path><path d="M 10.30 12.20 L 10.80 11.70 L 10.90 10.40 L 10.10 9.70 L 9.60 9.60 L 8.60 10.00 L 8.20 11.00 L 8.90 12.20 L 10.30 12.20 Z" fill="url(#paint26_radial_18_17387)" fill-rule="nonzero" node-id="706" stroke="none" target-height="2.5999994" target-width="2.6999998" target-x="8.2" target-y="9.6"></path><path d="M 10.30 12.20 L 10.80 11.70 L 10.90 10.40 L 10.10 9.70 L 9.60 9.60 L 8.60 10.00 L 8.20 11.00 L 8.90 12.20 L 10.30 12.20 Z" fill="url(#paint27_radial_18_17387)" fill-rule="nonzero" node-id="708" stroke="none" target-height="2.5999994" target-width="2.6999998" target-x="8.2" target-y="9.6"></path><g node-id="748"><path d="M 21.70 12.20 L 21.20 11.70 L 21.10 10.40 L 21.90 9.70 L 22.40 9.60 L 23.40 10.00 L 23.80 11.00 L 23.10 12.20 L 21.70 12.20 Z" fill="url(#paint28_radial_18_17387)" fill-rule="nonzero" filter="url(#filter3_i_18_17387)" group-id="4" node-id="712" stroke="none" target-height="2.5999994" target-width="2.6999989" target-x="21.1" target-y="9.6"></path><path d="M 21.70 12.20 L 21.20 11.70 L 21.10 10.40 L 21.90 9.70 L 22.40 9.60 L 23.40 10.00 L 23.80 11.00 L 23.10 12.20 L 21.70 12.20 Z" fill="url(#paint29_radial_18_17387)" fill-rule="nonzero" filter="url(#filter3_i_18_17387)" group-id="4" node-id="714" stroke="none" target-height="2.5999994" target-width="2.6999989" target-x="21.1" target-y="9.6"></path></g><g node-id="749"><path d="M 18.50 22.30 L 17.80 24.10 L 16.00 24.80 L 14.30 24.10 L 13.60 22.30 L 14.30 20.60 L 16.00 19.90 L 17.80 20.60 L 18.50 22.30 Z" fill="url(#paint30_radial_18_17387)" fill-rule="nonzero" filter="url(#filter4_di_18_17387)" group-id="5" node-id="719" stroke="none" target-height="4.8999996" target-width="4.8999996" target-x="13.6" target-y="19.9"></path></g><g node-id="750"><path d="M 16.20 9.40 L 17.20 9.90 L 21.10 15.40 L 21.70 15.90 L 22.80 15.70 L 27.30 12.50" fill="none" filter="url(#filter5_f_18_17387)" group-id="6" node-id="724" stroke="url(#paint31_linear_18_17387)" stroke-linecap="butt" stroke-width="0.15" target-height="6.5" target-width="11.099998" target-x="16.2" target-y="9.4"></path><path d="M 16.20 9.40 L 17.20 9.90 L 21.10 15.40 L 21.70 15.90 L 22.80 15.70 L 27.30 12.50" fill="none" filter="url(#filter5_f_18_17387)" group-id="6" node-id="726" stroke="url(#paint32_radial_18_17387)" stroke-linecap="butt" stroke-width="0.15" target-height="6.5" target-width="11.099998" target-x="16.2" target-y="9.4"></path></g><path d="M 17.80 7.60 L 17.70 8.40 L 16.70 9.30 L 15.30 9.30 L 14.30 8.40 L 14.30 6.90 L 15.30 6.00 L 16.70 6.00 L 17.70 6.90 L 17.80 7.60 Z" fill="url(#paint33_radial_18_17387)" fill-rule="nonzero" node-id="729" stroke="none" target-height="3.3000002" target-width="3.499999" target-x="14.3" target-y="6"></path><path d="M 17.80 7.60 L 17.70 8.40 L 16.70 9.30 L 15.30 9.30 L 14.30 8.40 L 14.30 6.90 L 15.30 6.00 L 16.70 6.00 L 17.70 6.90 L 17.80 7.60 Z" fill="url(#paint34_radial_18_17387)" fill-rule="nonzero" node-id="731" stroke="none" target-height="3.3000002" target-width="3.499999" target-x="14.3" target-y="6"></path><path d="M 17.80 7.60 L 17.70 8.40 L 16.70 9.30 L 15.30 9.30 L 14.30 8.40 L 14.30 6.90 L 15.30 6.00 L 16.70 6.00 L 17.70 6.90 L 17.80 7.60 Z" fill="url(#paint35_radial_18_17387)" fill-rule="nonzero" node-id="733" stroke="none" target-height="3.3000002" target-width="3.499999" target-x="14.3" target-y="6"></path><path d="M 17.80 7.60 L 17.70 8.40 L 16.70 9.30 L 15.30 9.30 L 14.30 8.40 L 14.30 6.90 L 15.30 6.00 L 16.70 6.00 L 17.70 6.90 L 17.80 7.60 Z" fill="url(#paint36_radial_18_17387)" fill-rule="nonzero" node-id="735" stroke="none" target-height="3.3000002" target-width="3.499999" target-x="14.3" target-y="6"></path><path d="M 29.90 11.90 L 29.50 12.90 L 28.50 13.30 L 27.50 12.90 L 27.10 11.90 L 27.50 10.90 L 28.50 10.50 L 29.50 10.90 L 29.90 11.90 Z" fill="url(#paint37_radial_18_17387)" fill-rule="nonzero" node-id="737" stroke="none" target-height="2.8000002" target-width="2.7999992" target-x="27.1" target-y="10.5"></path><path d="M 29.90 11.90 L 29.50 12.90 L 28.50 13.30 L 27.50 12.90 L 27.10 11.90 L 27.50 10.90 L 28.50 10.50 L 29.50 10.90 L 29.90 11.90 Z" fill="url(#paint38_radial_18_17387)" fill-rule="nonzero" node-id="739" stroke="none" target-height="2.8000002" target-width="2.7999992" target-x="27.1" target-y="10.5"></path><path d="M 29.90 11.90 L 29.50 12.90 L 28.50 13.30 L 27.50 12.90 L 27.10 11.90 L 27.50 10.90 L 28.50 10.50 L 29.50 10.90 L 29.90 11.90 Z" fill="url(#paint39_radial_18_17387)" fill-rule="nonzero" node-id="741" stroke="none" target-height="2.8000002" target-width="2.7999992" target-x="27.1" target-y="10.5"></path><path d="M 29.90 11.90 L 29.50 12.90 L 28.50 13.30 L 27.50 12.90 L 27.10 11.90 L 27.50 10.90 L 28.50 10.50 L 29.50 10.90 L 29.90 11.90 Z" fill="url(#paint40_radial_18_17387)" fill-rule="nonzero" node-id="743" stroke="none" target-height="2.8000002" target-width="2.7999992" target-x="27.1" target-y="10.5"></path></svg>